<svg xmlns="http://www.w3.org/2000/svg" x="0px" y="0px" fill="white" data-name="Layer 1" viewBox="0 0 5 5">
    <title>
        maya
    </title>
    <path d="M4.76576,2.03318c-.07336-.02228-.14691-.04443-.22174-.06262A.86487.86487,0,0,1,4.26235,1.852c-.01593-.01068-.02124-.02075-.00946-.03473a.07855.07855,0,0,0,.01227-.09015l-.00439-.00977c-.04993-.09674-.03424-.09711.06635-.113.0545-.00867.1087-.012.16321-.01526a.68677.68677,0,0,0,.07019-.00354c.084-.01385.129-.05.14-.12488.00623-.0426.0177-.084.026-.126.00415-.021.01263-.04138.0163-.06238a.43931.43931,0,0,0,.00745-.074A.06543.06543,0,0,0,4.66475,1.136c-.04962.01068-.09949.02087-.14844.03394-.087.02319-.17627.035-.26477.0498a2.59085,2.59085,0,0,1-.33789.03491c-.02344.00079-.04687.00079-.07025.00037a.07846.07846,0,0,1-.05994-.02612c-.03735-.04-.07806-.07739-.11719-.11609A.02214.02214,0,0,1,3.679,1.07835.70894.70894,0,0,0,3.97048.9434a.69377.69377,0,0,0,.187-.19287A.10457.10457,0,0,0,4.166.73063.044.044,0,0,0,4.12782.67546a.25608.25608,0,0,0-.058.00159c-.0462.008-.09229.01709-.13788.02789a.86547.86547,0,0,1-.1861.02136L3.71065.7274a1.44908,1.44908,0,0,1-.291-.01776A1.58319,1.58319,0,0,0,3.21224.6815a.37068.37068,0,0,1-.103-.01691A1.347,1.347,0,0,0,2.78713.62083a1.69358,1.69358,0,0,0-.2561.0274A.24647.24647,0,0,0,2.41768.704c-.014.0127-.0282.02533-.04272.03754C2.34889.76341,2.33467.762,2.32082.73631L2.29616.68852A.19642.19642,0,0,0,2.27449.65129a1.78694,1.78694,0,0,0-.16614-.1889C2.05281.41368,1.99709.36515,1.93971.31822A.76434.76434,0,0,0,1.86446.26939.09091.09091,0,0,0,1.7383.27964C1.714.298,1.69216.31913,1.6686.3383a.39344.39344,0,0,0-.11017.13879c-.017.03619-.03888.07062-.058.10608a.51336.51336,0,0,0-.0238.04919.05839.05839,0,0,0,.03644.07928.3954.3954,0,0,0,.06415.02441,1.68942,1.68942,0,0,1,.1925.07349.25255.25255,0,0,1,.04071.02014.087.087,0,0,1,.05011.07825L1.85878.96122a.02853.02853,0,0,1-.01849.02533A.26464.26464,0,0,1,1.796,1.001c-.05316.01257-.10651.02441-.15985.03638a.14822.14822,0,0,1-.06958.00085c-.04846-.01239-.09662-.02588-.14526-.038a.053.053,0,0,1-.0462-.053.09928.09928,0,0,0-.0069-.031A.06079.06079,0,0,0,1.32942.87925C1.29653.86894,1.263.85984,1.22908.8527a.07835.07835,0,0,0-.08276.02844c-.009.01166-.01483.02539-.02386.037A.04947.04947,0,0,1,1.082.93669.23.23,0,0,1,1.047.93522,1.93213,1.93213,0,0,0,.6498.92686a.66.66,0,0,0-.23761.0578C.384.99748.35567,1.01017.32778,1.0236c-.05554.02667-.06012.03986-.033.092l.01044.0188a.05334.05334,0,0,1-.01392.06848c-.02362.019-.0495.03583-.07257.05548a.12906.12906,0,0,0-.02655.03491.04668.04668,0,0,0,.00073.05084A.11507.11507,0,0,0,.21248,1.37a1.87154,1.87154,0,0,1,.157.16833l.01575.01538A.05966.05966,0,0,0,.476,1.54942.42734.42734,0,0,1,.609,1.4445c.0708-.03949.14166-.07819.21637-.11115a.24611.24611,0,0,1,.11279-.02588A.064.064,0,0,1,.98006,1.321a.195.195,0,0,0,.10614.0592.19307.19307,0,0,0,.13641-.00079.09046.09046,0,0,1,.1051.02539.55276.55276,0,0,1,.10449.163.0974.0974,0,0,1,.0022.02094c.00122.00977-.01141.02283-.0213.02045A.89916.89916,0,0,0,1.1927,1.595a.2218.2218,0,0,0-.21863.16528.1225.1225,0,0,0,.02179.1015.0695.0695,0,0,0,.02539.02057.14209.14209,0,0,0,.08856.021.20483.20483,0,0,1,.1402.03949.03688.03688,0,0,1,.01245.04742c-.02039.03876-.04169.07715-.06158.116a.27716.27716,0,0,1-.142.12433.15141.15141,0,0,1-.03326.0108A.17648.17648,0,0,0,.893,2.35331q-.07022.15353-.14032.307l-.00757.02032a.84233.84233,0,0,1-.07623.17877,1.6069,1.6069,0,0,0-.09564.219.31932.31932,0,0,1-.02771.05914c-.04218.07312-.06848.15186-.10461.227a.98975.98975,0,0,0-.06238.21637.097.097,0,0,0,.02252.0799.09818.09818,0,0,0,.05756.03284.35974.35974,0,0,0,.10437.00555c.0506-.002.10132-.0033.15186-.00281.03253.00024.05127.01239.05371.031a.04691.04691,0,0,1-.02277.0462.318.318,0,0,0-.04425.03528.07789.07789,0,0,0-.01855.08936.1977.1977,0,0,0,.08527.10895.09964.09964,0,0,1,.04364.04767.14733.14733,0,0,0,.07056.06689.0154.0154,0,0,1,.00214.02692.28254.28254,0,0,0-.08832.16016.19374.19374,0,0,0,.00006.08435.087.087,0,0,0,.08044.06525c.0271.00134.05444.00018.08167.00073a.03921.03921,0,0,1,.03418.02435.37753.37753,0,0,0,.01337.06183.08076.08076,0,0,1,.00006.07184A.41745.41745,0,0,0,1.255,4.75c.03839.00134.077.00055.11591-.0014l.02332-.0011a.16871.16871,0,0,1,.06091.004c.15369-.05383.31067-.10895.46936-.15723.01483-.00775.03088-.01361.04523-.02234q.12259-.07434.24609-.14764a.05037.05037,0,0,1,.0448-.00323l.06317.02588a.421.421,0,0,0,.12115.02686c.06464-.00891.11285-.0144.15424-.02246a.15661.15661,0,0,0,.05347-.063.04919.04919,0,0,0,.004-.02075.06472.06472,0,0,0-.00336-.02069.89723.89723,0,0,1-.03522-.26093.11483.11483,0,0,1,.049-.11151.13887.13887,0,0,0,.04-.15723.22177.22177,0,0,0-.0152-.03973.117.117,0,0,0-.10114-.07574l-.02313-.0025c-.04907-.00281-.05963-.02808-.05048-.06372a.132.132,0,0,1,.03894-.07642.21671.21671,0,0,0,.05676-.09247.4378.4378,0,0,0,.0235-.27148.65089.65089,0,0,1-.00952-.17938l.00464-.00922.0188.00793.00616.00867a.57565.57565,0,0,1,.03625.18622c-.002.07074-.002.14154-.00543.21228-.00317.06317.01947.09814.1026.09314.02722-.00165.05444-.00464.08167-.00629a.04717.04717,0,0,1,.05109.03381.39891.39891,0,0,1,.01672.05035,1.00532,1.00532,0,0,0,.09442.21405.31258.31258,0,0,0,.06189.07483.65824.65824,0,0,0,.05914.04974.10808.10808,0,0,1,.03583.0528.58076.58076,0,0,1,.02277.08154c.007.04681.01215.09387.01764.14087l.04376.00543c.076.01123.14349.02643.20258.03632A.07642.07642,0,0,1,3.464,4.15806c.004-.00787.01746-.01208.02423-.01642a.113.113,0,0,1,.12006.08112.03936.03936,0,0,1-.00684.03339c.06885-.00763.11658-.04669.14178-.15063a.18487.18487,0,0,0-.04712-.04181,1.30743,1.30743,0,0,0-.2323-.11584c-.054-.01849-.106-.04175-.15863-.06323a.28627.28627,0,0,1-.125-.10486.95761.95761,0,0,1-.1239-.25934A.03668.03668,0,0,1,3.06624,3.481a.09871.09871,0,0,0,.02905-.07867q-.00357-.06354-.00464-.12732a.46967.46967,0,0,0-.01849-.12549A1.6571,1.6571,0,0,0,3.012,2.92423a.01832.01832,0,0,1,.01312-.02478.0312.0312,0,0,1,.02991.01233.34172.34172,0,0,1,.02765.0459.20645.20645,0,0,0,.05542.06641.12165.12165,0,0,0,.0835.03113c.01556-.00049.03119-.00079.04669,0a.06441.06441,0,0,1,.049.02472.21122.21122,0,0,1,.03949.06342.42648.42648,0,0,1,.02356.20868.71467.71467,0,0,0-.01477.11621c-.00153.02814-.00739.05627-.01166.08435-.0022.0141-.00665.028-.00769.04205a.95684.95684,0,0,1-.02271.15814.09.09,0,0,0,.0376.09442.12428.12428,0,0,0,.01746.01361,1.20957,1.20957,0,0,0,.229.09943.16355.16355,0,0,0,.03442.00452.07848.07848,0,0,0,.08887-.05463L3.73457,3.9c.01093-.05951.023-.11884.03217-.17853.0097-.06317.0188-.12653.02393-.19006a.08416.08416,0,0,1,.05243-.0766.0746.0746,0,0,0,.04114-.07239.14471.14471,0,0,0-.001-.03174.83634.83634,0,0,0-.118-.30627,1.54717,1.54717,0,0,0-.094-.13214c-.03479-.04156-.07642-.07837-.11481-.11749a.49235.49235,0,0,1-.0835-.08209.13764.13764,0,0,1,.07141.02386c.04736.02985.09424.06024.14148.09021a.10712.10712,0,0,0,.0199.01056A.06934.06934,0,0,0,3.77236,2.833c.01245-.00861.02258-.02008.03516-.02856a.028.028,0,0,1,.02155-.00354c.02771.01208.054.02692.08179.03888a.05147.05147,0,0,0,.0705-.03619c.00464-.02448.00659-.04926.01007-.07385a.02757.02757,0,0,1,.02606-.0177c.0116.00085.023.00372.03461.00409.05463.00189.07776-.02045.07678-.07129a.30806.30806,0,0,0-.0166-.08289,2.42489,2.42489,0,0,0-.10376-.27924l-.00043-.01a.01459.01459,0,0,1,.02-.00555c.0246.01019.04956.01978.07355.031a.17187.17187,0,0,0,.14606.00623.05692.05692,0,0,1,.05481.00726c.01569.01013.03113.02057.04712.03033a.09871.09871,0,0,0,.08905.00787,1.41528,1.41528,0,0,0,.24146-.11334c.02966-.01776.05859-.03656.087-.056a.10633.10633,0,0,0,.04517-.06134A.0675.0675,0,0,0,4.76576,2.03318ZM.37221,1.35044.36189,1.34916c-.0072-.004-.008-.01056-.00183-.01752a.195.195,0,0,1,.11719-.058A.31875.31875,0,0,1,.37221,1.35044ZM.62,1.32c-.04944.03973-.1012.077-.14771.11975a.09221.09221,0,0,1-.02948.012c-.00842-.00415-.01849-.006-.02069-.01086C.41811,1.432.41414,1.419.4186,1.412A.10955.10955,0,0,1,.45625,1.373c.0506-.02588.10321-.04846.15521-.072l.01013.00208C.62734,1.30729.62721,1.31419.62,1.32Zm.27484-.31921-.0105.00372a1.46884,1.46884,0,0,0-.39386.10126.15081.15081,0,0,1-.06775.01349.03193.03193,0,0,1-.027-.01624A.03131.03131,0,0,1,.4084,1.06553.64812.64812,0,0,1,.62966.99809,1.99169,1.99169,0,0,1,.88631.99174l.0108.00342ZM3.293,3.98454a.39894.39894,0,0,1,.06561.01666c.00867.0033.01331.01508.01917.02228-.00427.00787-.00586.0166-.011.01923a.054.054,0,0,1-.06287-.00665.11.11,0,0,1-.02051-.03589Zm.38385-2.63641c.03125-.00061.06262-.00079.09363-.00378a1.289,1.289,0,0,0,.17487-.01721.43915.43915,0,0,1,.09326-.00751,2.00075,2.00075,0,0,0,.39362-.05621c.05334-.0116.10675-.023.16028-.03381a.03184.03184,0,0,1,.03516.03271c-.00317.01385-.00684.02771-.011.04144a.64846.64846,0,0,0-.0329.11353c-.00458.0451-.03247.06232-.07367.07007a.52.52,0,0,1-.08124.00879c-.09375.0025-.18738.00354-.29.00537-.08087.00269-.17078.004-.2605.00934-.06226.00372-.12415.01422-.1864.01923a.874.874,0,0,0-.17444.01917.08736.08736,0,0,1-.02313.00348,1.15618,1.15618,0,0,0-.28827.04736.0514.0514,0,0,1-.023.00049c-.007-.00146-.01685-.00476-.01892-.00964-.00977-.02277-.01782-.04614-.02545-.06964a.04.04,0,0,1,.027-.05212c.04816-.01569.09613-.03235.14514-.04523.07538-.01984.1521-.03522.22729-.05566A.5635.5635,0,0,1,3.67684,1.34812Zm.44922.30377a.02267.02267,0,0,1-.01208.01526.03272.03272,0,0,1-.02191-.00122.3615.3615,0,0,0-.13135-.02765c-.00952-.00031-.01337-.00629-.01044-.01245l.00732-.0069c.02191-.00513.04395-.00958.06134-.01324.03143.00586.05725.01038.08295.01563A.03112.03112,0,0,1,4.12605,1.6519Zm-1.2005.70544A.41289.41289,0,0,1,2.94124,2.295c.03973-.13409.066-.27039.09528-.40631A.63376.63376,0,0,1,3.073,1.78782c.00177-.00439.01263-.00635.01965-.00824l.00653.00708a.33228.33228,0,0,1,.00433.05206c-.00232.0567-.0061.11334-.00928.17l.00342.00012c-.00464.05652-.00983.113-.01349.16956a.34383.34383,0,0,0,.00269.05249c.00189.02112.00665.04211.00647.06317a.386.386,0,0,0,.08295.23718.388.388,0,0,1,.0271.04584l-.00153.00983-.00909.006a.34054.34054,0,0,1-.05634-.0119c-.05743-.02045-.11414-.04242-.171-.06409a.09943.09943,0,0,1-.01971-.01074.05183.05183,0,0,1-.02856-.04327C2.91829,2.42771,2.921,2.39237,2.92555,2.35734Zm.23975-.007a.86518.86518,0,0,1-.01074-.21954l.00507-.00757.01025.00372a.08193.08193,0,0,1,.01373.02826,1.24576,1.24576,0,0,0,.06293.22229c.01215.03644.021.074.03.11133.00134.00562-.00342.01324-.007.0191s-.02112.00043-.02911-.0083A.29442.29442,0,0,1,3.1653,2.35032ZM3.25435,2.2a1.28064,1.28064,0,0,1-.02985-.13385c-.0127-.0802-.02472-.16034-.04248-.23969a.266.266,0,0,1-.00024-.06311l.00543-.00787a.05349.05349,0,0,1,.01807.01117.03752.03752,0,0,1,.00659.01978c.00769.11316.03741.223.05206.33514a.77119.77119,0,0,1,.0213.14148A.11311.11311,0,0,1,3.25435,2.2Zm.116-.99652a.05894.05894,0,0,0,.03625.01538A.05894.05894,0,0,1,3.37038,1.20347ZM3.76253.81724A1.06712,1.06712,0,0,0,3.95632.79148c.0061-.00079.01294.00372.01941.0058L3.967.80412a.7414.7414,0,0,1-.07825.01825A.57948.57948,0,0,1,3.8196.82414L3.81954.82871c-.01917.00037-.03833.00085-.0575.00079L3.752.82566C3.74776.822,3.75191.81669,3.76253.81724ZM3.76119.92051a.101.101,0,0,1,.02161.00482A.05387.05387,0,0,1,3.767.93278c-.03424.00311-.0686.00708-.10291.00751a.899.899,0,0,1-.1026-.00537A.06641.06641,0,0,1,3.536.92112C3.611.92088,3.68611.92045,3.76119.92051ZM3.39052.8856a.367.367,0,0,1,.13635.03369.33277.33277,0,0,1-.1402-.01862L3.36885.89091A.06816.06816,0,0,1,3.39052.8856ZM3.358,1.19615,3.34731,1.1862ZM3.33864,1.1779A.07948.07948,0,0,0,3.276,1.14036.07948.07948,0,0,1,3.33864,1.1779Zm-.071-.04156a.06469.06469,0,0,0-.03833-.01544A.06469.06469,0,0,1,3.26766,1.13633Zm-.16046-.07465c.02545.00684.05054.015.07544.02338a.07228.07228,0,0,1,.03766.03143c-.04175-.01251-.08356-.02478-.12494-.03809C3.091,1.07707,3.089,1.06962,3.086,1.065A.05679.05679,0,0,1,3.10719,1.06169Zm.08276.176c.03656.0238.08484.03345.10944.07178l.00067.0097-.00873.00665a.05326.05326,0,0,1-.0224,0,.4429.4429,0,0,1-.05261-.02,1.43619,1.43619,0,0,0-.17719-.0722.19955.19955,0,0,1-.04456-.02582.64265.64265,0,0,0,.06512-.00159A.19336.19336,0,0,1,3.19,1.23771Zm-.256.29645A.072.072,0,0,1,2.965,1.52134a.08966.08966,0,0,1,.07947.03241.07541.07541,0,0,1,.01038.02673.07126.07126,0,0,1-.02551.05914.03654.03654,0,0,1-.0321.00348.3339.3339,0,0,1-.071-.09076A.02023.02023,0,0,1,2.93392,1.53416Zm-.13721.04517c.006.00128.02008.00049.02722.00641a.27684.27684,0,0,1,.07245.08014.06653.06653,0,0,1-.01074.07941.03383.03383,0,0,1-.02.00885.02733.02733,0,0,1-.02789-.01434l-.00446-.00946A.14837.14837,0,0,0,2.78,1.62882a.0694.0694,0,0,1-.01166-.01776C2.762,1.6013,2.77632,1.58195,2.79671,1.57932Zm.00037,1.07825a.01852.01852,0,0,1,.0152.00983.19117.19117,0,0,1,.00525.04175.20228.20228,0,0,0,.02478.09106.22972.22972,0,0,1,.01483.046c-.02533-.01935-.05109-.03833-.07581-.05835a.049.049,0,0,1-.02-.05646c.00659-.02045.01166-.04126.01917-.06146A.02486.02486,0,0,1,2.79707,2.65757Zm-.32837-1.5011a.03633.03633,0,0,1,.01477-.016.34488.34488,0,0,1,.17413-.053l.01154-.00122L2.669,1.08561l.04486-.004.00208.0072-.0069.007a.6579.6579,0,0,0-.22375.08643.01276.01276,0,0,1-.01917-.00616A.0284.0284,0,0,1,2.46871,1.15647Zm-.0675.2262a2.07455,2.07455,0,0,0,.19495.16241.01773.01773,0,0,1,.00269.01874.11189.11189,0,0,1-.13721.01379A.97454.97454,0,0,1,2.241,1.33793a.61693.61693,0,0,1-.08319-.20587c-.0033-.01727-.004-.035-.006-.05487l.0094-.03931a.02828.02828,0,0,1,.03851-.01166.08359.08359,0,0,1,.02765.03192c.00867.02673.01019.05554.01831.08252A.55868.55868,0,0,0,2.4012,1.38267Zm.0885.50293a.03124.03124,0,0,1-.03809-.0141c-.0152-.03931-.0307-.07849-.04529-.118a.07415.07415,0,0,1-.00012-.02283l.00293-.00763a.07006.07006,0,0,1,.09155-.01624.14831.14831,0,0,1,.05286.07867A.08629.08629,0,0,1,2.4897,1.8856Zm-.07239.41986-.0025.00476Zm-.214.02118a.48392.48392,0,0,1-.01874.07227c-.00122.00409-.00891.00665-.01355.00995l-.00293-.01013-.00269-.04333.00995-.07281a.59175.59175,0,0,0,.01038-.07373.60318.60318,0,0,1,.0365-.16638c.00165-.00549.01086-.00928.01654-.01385.00354.00482.01086.01007.01007.01428C2.231,2.13719,2.21633,2.23179,2.20332,2.32664Zm-.02826-.899c.00018-.00531.00677-.01074.01044-.01611l.01074.002c.00873.01117.0213.02209.02386.03473a.79438.79438,0,0,0,.05621.18085.02775.02775,0,0,1-.01068.02814.03134.03134,0,0,1-.03082-.00842.27166.27166,0,0,1-.02374-.047A.54.54,0,0,1,2.17507,1.42759Zm.06732.47772a.26441.26441,0,0,1-.02905-.10046c-.0025-.02734.01575-.04559.04883-.04736a.05643.05643,0,0,1,.05817.02509.29682.29682,0,0,1,.02722.05695c.014.0448-.02435.08459-.07709.08051A.03956.03956,0,0,1,2.24239,1.90531Zm.10132.11072.0058-.0061a.38169.38169,0,0,1-.01605.133.36394.36394,0,0,0-.0105.09467.14725.14725,0,0,1-.01331.03973l-.00891.00616c-.00775.00336-.01355.00031-.0152-.00891a.06122.06122,0,0,1-.001-.02106A.96941.96941,0,0,1,2.34371,2.016ZM2.2787.9362l-.001.01007c-.0058.00391-.01392.0097-.01917.00854C2.229.948,2.19978.93992,2.17085.93138a.15011.15011,0,0,0-.1217.01691c-.01642.00946-.03143.02087-.04773.03046a.04081.04081,0,0,1-.05505-.022.05775.05775,0,0,1,.0224-.06671A.204.204,0,0,1,2.08937.84843c.038.0061.06873.00928.09833.01611A.12747.12747,0,0,1,2.2787.9362ZM2.082,2.43l-.00623.00677a.043.043,0,0,1-.01825-.00952.03913.03913,0,0,1-.00586-.01978c-.00134-.01044-.0014-.021-.00092-.01184a.27363.27363,0,0,1,.00079-.05133,1.5764,1.5764,0,0,0,.02765-.20984.40311.40311,0,0,1,.02612-.08105c.00153-.00415.01227-.0061.019-.00787l.00623.00824.00238.00983A2.74489,2.74489,0,0,0,2.082,2.43Zm.02814.40558a.24432.24432,0,0,1-.01459.12549c-.00214.00433-.01111.00629-.01733.00848L2.073,2.96122c.00293-.02106.00677-.042.01025-.06293l.0011.00012c.00287-.02112.00519-.04236.009-.06335.00165-.00934.00769-.01251.01215-.00867Zm.02026-.929a.06434.06434,0,0,1-.08508.03094.01943.01943,0,0,1-.00848-.01721.20684.20684,0,0,0,.00067-.11353c-.00317-.012.01489-.02594.03-.02521a.05845.05845,0,0,1,.05328.03357.34258.34258,0,0,1,.016.0556C2.13411,1.886,2.133,1.89652,2.13039,1.90666ZM1.95,1.85655a.10025.10025,0,0,1-.129.08984c-.01074-.00256-.02209-.01337-.01978-.02209a.56484.56484,0,0,0,.0191-.12616c.00085-.02393.02209-.03552.05029-.0296C1.92757,1.78037,1.95009,1.8054,1.95,1.85655ZM1.60091.66972A.028.028,0,0,1,1.58418.62657C1.6108.57493,1.63686.523,1.66524.47209A.10987.10987,0,0,1,1.74837.41825a.09643.09643,0,0,1,.06677.01129c.019.01172.03638.02563.054.03906.03821.02905.07806.05658.11371.088a.51917.51917,0,0,1,.13062.156l-.00012.02-.01819-.006c-.02856-.028-.05542-.05756-.08466-.08508A.20735.20735,0,0,0,1.92427.591c-.01221-.00354-.03284.01135-.03192.02386L1.89388.6251c.01617.02637.00262.04517-.01807.06445A.0274.0274,0,0,0,1.8763.72849c.01459.01605.03033.03113.04462.04736.00616.007.00305.01385-.006.01715L1.90395.795A.06134.06134,0,0,1,1.882.79014,1.44171,1.44171,0,0,0,1.60091.66972Zm.23938.58923.00586.00818a.37148.37148,0,0,1-.08185.07672.01344.01344,0,0,1-.01978-.00055L1.746,1.33457q.04138-.038.08368-.07532Zm-.1778-.14124a.0756.0756,0,0,1,.05542-.01282L1.72749,1.11l.00073.00891a.95047.95047,0,0,1-.12354.11359l-.00977.00073-.005-.00873A.18966.18966,0,0,1,1.66249,1.11772Zm-.06226.38135a.08411.08411,0,0,1,.07037-.051.63454.63454,0,0,1,.163-.00616.13933.13933,0,0,1,.064.02252.0539.0539,0,0,1,.02759.0437c.00018.02466-.00024.04944-.00043.07416.00568.12445-.00354.1109-.13129.11084a.10893.10893,0,0,1-.02325-.001,1.22245,1.22245,0,0,0-.20758-.02106.02465.02465,0,0,1-.02045-.0321C1.56136,1.59226,1.57955,1.54521,1.60024,1.49906Zm-.0296.27a.02026.02026,0,0,1,.01227-.01556.55324.55324,0,0,1,.08075-.007.07186.07186,0,0,1,.07056.07019.13877.13877,0,0,1-.04486.09631.0645.0645,0,0,1-.03052.0144.09953.09953,0,0,1-.06738-.00958.03771.03771,0,0,1-.019-.02338.216.216,0,0,1,.00739-.05023C1.57729,1.82456,1.57289,1.79692,1.57063,1.76908ZM1.20613,1.23a.37648.37648,0,0,1-.03143.05725.06057.06057,0,0,1-.08246-.001.107.107,0,0,1-.01074-.02856c.00854-.02869.01563-.05652.02509-.08374A1.575,1.575,0,0,0,1.17873.95909.03049.03049,0,0,1,1.19039.94084.06232.06232,0,0,1,1.221.92924a.08842.08842,0,0,1,.03265.01007c.03723.01563.05.03687.03448.067C1.25105,1.07823,1.23909,1.15708,1.20613,1.23Zm.21924.07855a.42873.42873,0,0,0-.11389-.04773.03668.03668,0,0,1-.0246-.04248c.01532-.0437.03156-.08716.04791-.13062A.05252.05252,0,0,1,1.383,1.06791a.08075.08075,0,0,1,.02417.00378c.03162.01221.06287.02533.09344.03949a.03814.03814,0,0,1,.02032.05328l-.0661.13586A.022.022,0,0,1,1.42537,1.30857Zm-.12115.52625c.01752-.03571.03528-.07135.05414-.10645A.04343.04343,0,0,1,1.41,1.71592a.17347.17347,0,0,1,.07416.10236.15628.15628,0,0,1,0,.0307c-.00214.02655-.04456.06073-.0882.06244a.13916.13916,0,0,1-.07672-.01971.0371.0371,0,0,1-.01831-.03607A.05252.05252,0,0,1,1.30422,1.83482Zm-.09131-.03174a.09334.09334,0,0,1-.03918.02124.23881.23881,0,0,1-.05688.00513.04556.04556,0,0,1-.047-.0575l.0025-.01019c.01184-.022.02283-.04449.03638-.06573a.06366.06366,0,0,1,.04767-.02686c.019-.0025.03821-.00372.05768-.00549l.03375.00409c.00842.0011.02148.01508.02032.02216A.18878.18878,0,0,1,1.21291,1.80308ZM2.29848,3.95164A.053.053,0,0,1,2.272,3.889a.05634.05634,0,0,1,.03918-.048.091.091,0,0,1,.07629.00708A.03142.03142,0,0,1,2.399,3.8646a.086.086,0,0,1,.00275.02039.07748.07748,0,0,1-.07074.07147A.05869.05869,0,0,1,2.29848,3.95164Zm.21765.43195a.10769.10769,0,0,1-.06708.01172c-.01508-.003-.03-.00641-.04517-.00879-.0675-.0108-.07025-.04016-.06378-.09052a.124.124,0,0,1,.00757-.03094.48971.48971,0,0,0,.03308-.17645.1665.1665,0,0,1,.00494-.03125.06892.06892,0,0,1,.06775-.049.07818.07818,0,0,1,.08661.06738.44406.44406,0,0,1,.0022.05255.68621.68621,0,0,0,.016.18811C2.56648,4.34812,2.55165,4.36729,2.51613,4.38359ZM2.54268,3.818l.01526-.001.03064.00159a.04662.04662,0,0,1,.04169.06152.07378.07378,0,0,1-.06757.04968.05176.05176,0,0,1-.05432-.02936.13669.13669,0,0,1-.00812-.04034A.0428.0428,0,0,1,2.54268,3.818Zm.02606-1.0379c-.0105.01514-.02264.0296-.03149.04547a.04862.04862,0,0,0,.00842.06781.03451.03451,0,0,1,.01538.03668.71386.71386,0,0,0,.00232.2851.46457.46457,0,0,1-.025.23077.11572.11572,0,0,1-.11517.0769c-.009.00043-.01984-.00922-.02679-.01654a.02359.02359,0,0,1-.0025-.0199.03386.03386,0,0,1,.012-.018.10819.10819,0,0,0,.03345-.1524.182.182,0,0,1-.01562-.03955.07516.07516,0,0,0-.08856-.06464.072.072,0,0,1-.05017-.02295.10955.10955,0,0,0-.097-.02283c-.01526.00305-.03082.00507-.04626.00726a.153.153,0,0,1-.09076-.01068.1362.1362,0,0,0-.13281.01147l-.02087.01a.08363.08363,0,0,0-.04834.06934l-.00269.0318a.04919.04919,0,0,1-.02551.03424l-.01013.00537a.282.282,0,0,0-.15894.13721.204.204,0,0,0-.03809.12195.15377.15377,0,0,0,.19543.14349.33389.33389,0,0,0,.09729-.0368c.0293-.0155.04211-.01086.05206.0155a.39076.39076,0,0,0,.01489.03961.05632.05632,0,0,0,.06775.02643l.011-.00378c.06915-.02271.0799-.01129.12219-.08942a.24473.24473,0,0,1,.12439-.09369.04775.04775,0,0,1,.04993.01849.11271.11271,0,0,1,.01184.02924.198.198,0,0,1-.00317.08435A.04418.04418,0,0,1,2.328,3.7487a.47337.47337,0,0,0-.05444.0202.28681.28681,0,0,0-.05487.03973.08071.08071,0,0,0-.02759.05768c-.00061.02472-.00079.0495.001.0741a.083.083,0,0,0,.03271.06543.152.152,0,0,1,.06458.15863.162.162,0,0,1-.05511.1142.87949.87949,0,0,1-.08655.07294c-.0636.04218-.13092.07965-.195.12122a.96567.96567,0,0,1-.25952.124.86194.86194,0,0,1-.20972.06641,1.55,1.55,0,0,1-.17993.02295L1.20485,4.681a.095.095,0,0,1-.06836-.03473.16206.16206,0,0,1-.04315-.0957.39435.39435,0,0,0-.00653-.06311.27061.27061,0,0,0-.02515-.06927A.0924.0924,0,0,0,.9778,4.37052C.9507,4.3701.92354,4.36967.89656,4.368a.03953.03953,0,0,1-.03235-.03821.13364.13364,0,0,1,.0625-.11.11327.11327,0,0,1,.04236-.01721.67152.67152,0,0,1,.12665-.02142A.206.206,0,0,0,1.18538,4.158a.21353.21353,0,0,0,.02948-.01758c.058-.04187.05078-.09729-.01648-.12433a.18705.18705,0,0,0-.04364-.01343c-.05359-.00739-.1073-.01489-.16132-.0191a.49542.49542,0,0,1-.145-.03528.12419.12419,0,0,1-.05878-.04846.04576.04576,0,0,1,.00745-.06708c.01056-.01068.02142-.02118.03308-.03082.023-.0191.02893-.054.06183-.06232C.918,3.733.94637,3.73588.97328,3.73173a.239.239,0,0,0,.06714-.0174.06651.06651,0,0,1,.084.00781.06961.06961,0,0,0,.03217.00958c.012.00226.03235-.01709.03015-.02728a.10051.10051,0,0,0-.004-.02039,1.529,1.529,0,0,1-.08051-.24182c-.0047-.017-.00989-.03387-.016-.05048A.11073.11073,0,0,0,.93263,3.3422a.10221.10221,0,0,0-.028.019.04971.04971,0,0,0-.01062.02838c-.00049.01178.011.01843.02191.02155a.17635.17635,0,0,0,.03436.00372c.0575.00415.06366.00891.081.05768a.33254.33254,0,0,1,.02032.093.094.094,0,0,1-.0899.09607.23591.23591,0,0,1-.11511-.0072c-.0144-.005-.02917-.00946-.04395-.01361a.547.547,0,0,0-.22864-.0274.37289.37289,0,0,1-.05841.001.059.059,0,0,1-.06378-.07092.63479.63479,0,0,1,.03546-.11237C.53352,3.32115.58193,3.212.63,3.1027c.01166-.02655.02466-.05261.03748-.07867q.06006-.12241.12036-.24475a.11946.11946,0,0,0,.009-.01978,2.0367,2.0367,0,0,1,.09991-.22882c.0058-.01392.01532-.00775.02582-.0022.02576.01355.03656.01111.04919-.00629.013-.01794.027-.03546.038-.05438a.34938.34938,0,0,1,.16522-.1488.14255.14255,0,0,0,.038-.02484.01925.01925,0,0,0,.00189-.02869c-.01636-.01373-.02222-.02637-.00745-.04474.01166-.0144.02142-.03009.03162-.04541a.54477.54477,0,0,0,.07056-.1236.1504.1504,0,0,1,.02954-.04608.05458.05458,0,0,1,.02881-.01733A.36891.36891,0,0,1,1.496,1.98356c.0802.01294.16028.02686.24036.04041l.01111.00305c.01434.00354.02747.01874.02448.03149a.72156.72156,0,0,0-.01117.1803.06336.06336,0,0,0,.04968.06439c.092.02429.08832.03143.08942.11a.1722.1722,0,0,0,.0462.11682.07648.07648,0,0,1,.01941.06964c-.02631.119-.01056.24127-.045.3595a.11224.11224,0,0,0-.00305.02112c-.00372.04291.00537.06744.05261.08142.033.00977.06433.024.097.03467a.55058.55058,0,0,0,.06708.017c.06165.01208.1-.01056.11206-.06512a.11171.11171,0,0,0,.00488-.03156A.16416.16416,0,0,1,2.33327,2.861a.10511.10511,0,0,0,.042-.08551.18163.18163,0,0,0-.03412-.1308c-.01123-.01416-.02-.03-.03125-.04407a.15839.15839,0,0,1-.02112-.15192c.00165-.0058.00977-.01031.0152-.01514.00861-.00763.01611.00116.01575.01886l-.00092.0213L2.31746,2.495a.14664.14664,0,0,0,.077.13354.051.051,0,0,0,.03235.00018c.00848-.00165.016-.02051.01227-.02753-.01166-.022-.02594-.04291-.03558-.06555a.1013.1013,0,0,1,.02283-.11908A.09417.09417,0,0,1,2.52321,2.398a.14.14,0,0,1,.07178.06567.28086.28086,0,0,1,.02649.08051A.33027.33027,0,0,1,2.56874,2.78013ZM2.06,3.50492c-.01825-.00513-.03729-.00806-.05554-.01318a.038.038,0,0,1-.0127-.06769c.01172-.00922.025-.01691.03625-.02661.00848-.00739.00446-.03143-.00348-.03955a.10471.10471,0,0,0-.04932-.02539.0584.0584,0,0,1-.03864-.03583.04456.04456,0,0,1,.04321-.06012.0694.0694,0,0,1,.023-.00012.49234.49234,0,0,0,.17261.01416.04358.04358,0,0,1,.05078.03345c.01453.04352.02789.08734.04047.13141a.29739.29739,0,0,1,.00507.04694.19392.19392,0,0,1-.02368.043.22039.22039,0,0,1-.05237.04285.224.224,0,0,0-.08643.08575.065.065,0,0,1-.02228.02411.05235.05235,0,0,1-.03229.00763.056.056,0,0,1-.0271-.08691c.01324-.01288.0285-.02393.04175-.03674A.02767.02767,0,0,0,2.06,3.50492Zm-.14758.0224a.06894.06894,0,0,1-.02972.0661.1887.1887,0,0,1-.12964.04c-.03168-.00311-.06488-.03827-.05829-.06714A.22489.22489,0,0,1,1.72,3.49613a.24344.24344,0,0,1,.07941-.07806.151.151,0,0,1,.043-.0155.042.042,0,0,1,.04645.02289c.0072.02356.01422.04724.01978.07117A.18621.18621,0,0,1,1.91243,3.52732ZM2.6899,2.46659l-.00806-.00671L2.659,2.412a.189.189,0,0,0-.0943-.08777.17736.17736,0,0,0-.08789-.02167c-.018.00092-.03607.00037-.05414.00031a.09165.09165,0,0,1,.02637-.015c.02631-.00623.05359-.00854.08-.01459a.10834.10834,0,0,1,.11145.03815.29415.29415,0,0,1,.03906.06329.16624.16624,0,0,1,.015.08228Zm-.00171-.65173-.01135.00122c-.00629-.00317-.0152-.00488-.01855-.00977a.49692.49692,0,0,1-.056-.12415c-.004-.01178.00751-.02692.02319-.032a.06241.06241,0,0,1,.04462.00055.09153.09153,0,0,1,.05249.05188.27322.27322,0,0,1,.01227.0506C2.74068,1.78526,2.72633,1.80381,2.68819,1.81486Zm.0473.41785.02118-.00812c.01111-.00348.02661.00446.02588.01263l.00006.01038-.00995.03876-.00671.04327-.0058.00867-.008-.0072L2.7195,2.2656C2.71242,2.2512,2.71718,2.24125,2.73549,2.23271ZM2.78505,3.347l-.00647.00812c-.00677.0047-.01056.00128-.01044-.00922.00061-.0387.00208-.07745.00146-.11609a.50606.50606,0,0,0-.0141-.12531A.656.656,0,0,1,2.74269,3.005a.16915.16915,0,0,1,.041.10248c.00665.04156.01135.08344.01605.12524A.19824.19824,0,0,1,2.78505,3.347Zm.11572.01923-.01489.00787L2.88,3.36637c-.00024-.028.00012-.056.00037-.088a1.7083,1.7083,0,0,0-.027-.23553l.00507-.009c.00922-.00116.01282.00421.01636.0116a.49444.49444,0,0,1,.02863.13269A.64331.64331,0,0,1,2.90077,3.36625ZM3.018,3.32243a.13425.13425,0,0,1-.00793.03046l-.00854.004-.01019-.00269a.03688.03688,0,0,1-.00928-.01837c-.00055-.03888.00018-.0777.00049-.11658l-.00671.00012c.00024-.0318.00006-.0636.00116-.0954a.06075.06075,0,0,1,.00787-.01929l.00623.00873A.69749.69749,0,0,1,3.018,3.32243Zm.1026-.52942a.04821.04821,0,0,1-.05743.02429,1.017,1.017,0,0,1-.11127-.052.119.119,0,0,1-.05859-.11688c.00171-.0072.00519-.02429.00983-.04126a.03064.03064,0,0,1,.03577-.01941c.06293.02472.12592.04919.18842.07477a.03845.03845,0,0,1,.02576.05127C3.14308,2.74046,3.1324,2.76695,3.12062,2.793Zm.22052-.03149a.51886.51886,0,0,1-.08362.17419.14223.14223,0,0,1-.016.01544.05671.05671,0,0,1-.05414.00867c-.02368-.00842-.04132-.02924-.03931-.04633a.08089.08089,0,0,1,.00305-.02081c.02148-.053.04242-.10626.06622-.15851a.1603.1603,0,0,1,.03473-.04181.0272.0272,0,0,1,.021-.00531.10056.10056,0,0,1,.06555.05389l.00275.00873ZM3.366,2.18l-.01263-.01544a.19147.19147,0,0,1-.01819-.10693c.00446.00433.01007.00842.0116.01355q.01355.0444.02429.08948C3.37239,2.16648,3.36781,2.17356,3.366,2.18Zm.02161-.22418c-.007-.07715-.01306-.15442-.0188-.23169a.01041.01041,0,0,1,.01355-.01147l.00909.00537.00592.00879c.01489.0545.03394.10834.04327.16376.01459.08679.02264.17462.03094.24219-.00031.0379-.00024.0556-.00079.07324l-.00372.01007L3.458,2.21055c-.02014-.07123-.03986-.14252-.05963-.21387A.2343.2343,0,0,1,3.38759,1.95585Zm.23462,1.67474A.41884.41884,0,0,1,3.607,3.777a.04274.04274,0,0,1-.014.01617c-.00476.00378-.01117-.01215-.01074-.02374.00159-.04242.02826-.08063.025-.12451A.95622.95622,0,0,1,3.61073,3.529l.0058-.00916.00629.006C3.62294,3.56077,3.62251,3.59568,3.62221,3.63059Zm-.07452-.70172a.28985.28985,0,0,1,.07538.17065l-.00311.01-.006-.00244a.7994.7994,0,0,1-.073-.18207Zm-.0683.42792a.227.227,0,0,1-.00562.04865.69785.69785,0,0,0-.015.11511,1.23185,1.23185,0,0,1-.03644.18646l-.00909.00555-.00751-.004a2.04052,2.04052,0,0,1,.03143-.21814.12975.12975,0,0,0,.00427-.04181.61392.61392,0,0,1,.02472-.14581c.001-.00458.007-.0083.01074-.01245l.00275.01007C3.47994,3.31449,3.47963,3.32853,3.47939,3.35679Zm.08276-1.12646-.00067.0105-.006.01544-.00378-.00983a1.52558,1.52558,0,0,1-.02026-.1673,1.47068,1.47068,0,0,0-.05914-.35278l-.00842-.03052c-.00476-.02087.01093-.03839.03906-.04443.01575-.0033.0368.00372.03937.0141.01367.05463.02734.10919.03992.16406a.2852.2852,0,0,1,.003.04474A1.51443,1.51443,0,0,0,3.56215,2.23033Zm.13031.10223a.199.199,0,0,0-.00146.063.98614.98614,0,0,1,.00238.2l-.00745.00482-.00946-.00519A.044.044,0,0,1,3.6667,2.5767c-.00281-.02448-.00519-.04907-.0058-.07373a1.54715,1.54715,0,0,0-.01477-.22144,1.18114,1.18114,0,0,1-.00635-.15863l.00311-.00006c.00043-.0495-.00018-.099.00165-.1485a.17863.17863,0,0,1,.02539-.09174l.00769-.00183L3.68269,1.89A1.29342,1.29342,0,0,1,3.69246,2.33256Zm.07062-.43042c-.00592-.03448-.01111-.06915-.016-.10382l.0058-.00848.00983.00427c.03253.06659.06519.13318.09631.20038a.2366.2366,0,0,1,.01239.047A.66394.66394,0,0,1,3.773,1.9318.05712.05712,0,0,1,3.76308,1.90214ZM3.87,2.21183a.04006.04006,0,0,1-.019-.0354A.04006.04006,0,0,0,3.87,2.21183Zm-.00061.51874c-.01477-.01117-.02948-.0224-.04358-.03424a.132.132,0,0,1-.0509-.12366l.00854-.01886c.00311-.00525.02148-.00073.0307.0072l.0083.00726c.01886.01752.03693.03571.05664.05237a.08914.08914,0,0,1,.027.09729A.025.025,0,0,1,3.8694,2.73057ZM3.79958,2.422a.1847.1847,0,0,1-.01941-.132l.00519-.009c.00659.00189.01569.00311.01862.00763.01166.0177.02106.03668.0318.05493.02881.04865.05792.09717.08691.14569a.23571.23571,0,0,1,.03748.08295A.31112.31112,0,0,1,3.79958,2.422Zm.14349-.05658a.0423.0423,0,0,1,.01892.03473A.0423.0423,0,0,0,3.94307,2.36546Zm.09839-.27637a.0112.0112,0,0,1-.01849.00024.75258.75258,0,0,1-.06439-.087c-.03363-.05908-.0636-.12-.09412-.18054-.0144-.02869-.02618-.05853-.03992-.08752A.1535.1535,0,0,1,3.80989,1.652l.0061-.00909c.00653-.00018.01587-.00043.0191.00317a.09221.09221,0,0,1,.016.02728,3.287,3.287,0,0,0,.1908.40619Zm.57861.04352c-.05634.03271-.11285.06531-.17.0968a.17856.17856,0,0,1-.04382.015.084.084,0,0,1-.06683-.009.99.99,0,0,1-.17731-.13312A.71726.71726,0,0,1,4.0074,1.8585.149.149,0,0,1,3.9941,1.788a.09645.09645,0,0,1,.03168.00635c.03564.02057.06976.04321.1048.0647.06042.03711.11884.07758.18243.10968a1.19457,1.19457,0,0,0,.16028.05927c.05426.01813.10968.03357.16437.05066.01794.00562.02191.022.009.03265A.22175.22175,0,0,1,4.62007,2.13261Z"/>
    <path d="M1.59938,2.725a.38019.38019,0,0,1-.20667.00647.81013.81013,0,0,0-.09186-.011.38058.38058,0,0,0-.15894.03583.63211.63211,0,0,1-.14185.049.03275.03275,0,0,0-.02167.051.53292.53292,0,0,1,.07251.09412.2894.2894,0,0,0,.16138.128.15535.15535,0,0,0,.1449-.00928.65055.65055,0,0,0,.12787-.0943c.05444-.05658.1076-.11407.16547-.16791a.11116.11116,0,0,0,.03137-.0567.02864.02864,0,0,0-.02527-.03A.20865.20865,0,0,0,1.59938,2.725Zm-.36493.24-.037-.00336a.09335.09335,0,0,1-.082-.0636.03855.03855,0,0,1,.01019-.03894.24694.24694,0,0,1,.17975-.06158c.05725.00549.114.01385.171.02118.01379.00177.01892.02271.00867.03412A.34531.34531,0,0,1,1.23445,2.965Z"/>
    <path d="M1.36073,2.23857c-.00043-.012-.01508-.023-.03052-.02356-.02533-.00079-.04474.0155-.043.03625a.03051.03051,0,0,0,.03.02423A.04086.04086,0,0,0,1.36073,2.23857Z"/>
</svg>
